<?xml version="1.0" encoding="UTF-8" standalone="no"?>
<svg width="90px" height="68px" viewBox="0 0 90 68" version="1.1" xmlns="http://www.w3.org/2000/svg" xmlns:xlink="http://www.w3.org/1999/xlink" xmlns:sketch="http://www.bohemiancoding.com/sketch/ns">
    <!-- Generator: Sketch 3.0 (7574) - http://www.bohemiancoding.com/sketch -->
    <title>Slice 1</title>
    <description>Created with Sketch.</description>
    <defs></defs>
    <g id="Page-1" stroke="none" stroke-width="1" fill="none" fill-rule="evenodd" sketch:type="MSPage">
        <g id="fi-comments" sketch:type="MSLayerGroup">
            <g id="Group" sketch:type="MSShapeGroup">
                <path d="M89.974,1.838 C89.847,0.581 88.814,-0.403 87.531,-0.439 L87.531,-0.446 L34.624,-0.446 C33.309,-0.446 32.24,0.558 32.111,1.838 L32.085,1.838 L32.085,14.977 L54.427,14.977 C55.601,14.977 56.554,15.873 56.67,17.016 L56.693,17.016 L56.693,46.248 L67.702,46.248 L74.19,52.735 C74.646,53.412 75.419,53.857 76.296,53.857 C77.698,53.857 78.834,52.721 78.834,51.32 L78.834,46.248 L87.532,46.248 L87.532,46.24 C88.729,46.207 89.72,45.351 89.949,44.213 L90,44.213 L90,1.838 L89.974,1.838 L89.974,1.838 Z" id="Shape" fill="#50E3C2"></path>
                <path d="M2.204,19.964 C1.06,20.001 0.137,20.88 0.023,22.003 L0,59.838 C0.251,60.853 1.136,61.617 2.204,61.647 L9.969,61.653 L9.969,66.182 C9.969,67.432 10.984,68.447 12.235,68.447 C13.018,68.447 13.709,68.049 14.115,67.445 L19.907,61.653 L49.44,61.653 C50.536,61.653 51.451,60.873 51.66,59.838 L51.705,22.003 C51.568,20.859 50.614,19.964 49.44,19.964 L2.204,19.964 Z" id="Shape" fill="#B8E986"></path>
            </g>
        </g>
    </g>
</svg>