<?xml version="1.0" encoding="UTF-8" standalone="no"?>
<svg width="56px" height="72px" viewBox="0 0 56 72" version="1.1" xmlns="http://www.w3.org/2000/svg" xmlns:xlink="http://www.w3.org/1999/xlink" xmlns:sketch="http://www.bohemiancoding.com/sketch/ns">
    <!-- Generator: Sketch 3.0 (7574) - http://www.bohemiancoding.com/sketch -->
    <title>Slice 1</title>
    <description>Created with Sketch.</description>
    <defs></defs>
    <g id="Page-1" stroke="none" stroke-width="1" fill="none" fill-rule="evenodd" sketch:type="MSPage">
        <g id="fi-wheelchair" sketch:type="MSLayerGroup">
            <g id="Group" sketch:type="MSShapeGroup">
                <path d="M29.77,61.42 C27.515,62.984 24.782,63.907 21.829,63.907 C14.123,63.907 7.875,57.659 7.875,49.953 C7.875,47.001 8.797,44.267 10.362,42.013 L5.014,36.665 C1.988,40.39 0.162,45.13 0.162,50.304 C0.162,62.271 9.863,71.972 21.829,71.972 C27.003,71.972 31.752,70.156 35.478,67.129 L29.77,61.42 L29.77,61.42 Z" id="Shape" fill="#9B9B9B"></path>
                <circle id="Oval" fill="#9012FE" cx="47.152" cy="7.152" r="7.152"></circle>
                <path d="M51.35,31.582 L35.609,31.582 L44.586,22.604 C44.857,22.389 45.101,22.146 45.316,21.875 L45.389,21.802 L45.382,21.795 C45.951,21.043 46.301,20.116 46.301,19.101 C46.301,17.478 45.432,16.07 44.142,15.282 L44.143,15.281 L24.04,3.675 L24.023,3.705 C23.459,3.45 22.839,3.3 22.18,3.3 C21.028,3.3 19.989,3.747 19.194,4.46 L19.188,4.454 L19.128,4.514 C19.051,4.586 18.978,4.659 18.906,4.736 L10.041,13.601 L10.049,13.609 C9.287,14.413 8.812,15.493 8.812,16.689 C8.812,19.168 10.821,21.176 13.299,21.176 C14.495,21.176 15.575,20.701 16.379,19.939 L16.387,19.947 L16.468,19.866 C16.471,19.863 16.473,19.861 16.476,19.858 L22.933,13.401 L28.447,16.585 L15.436,29.597 C12.922,30.372 10.613,31.605 8.582,33.179 L13.889,38.486 C16.144,36.922 18.877,35.999 21.829,35.999 C29.536,35.999 35.783,42.247 35.783,49.953 C35.783,52.905 34.861,55.639 33.296,57.893 L38.962,63.56 C41.801,59.895 43.496,55.299 43.496,50.304 C43.496,46.797 42.658,43.488 41.179,40.558 L46.862,40.558 L46.862,58.929 C46.862,61.408 48.871,63.417 51.35,63.417 C53.829,63.417 55.838,61.407 55.838,58.929 L55.838,36.069 C55.838,33.591 53.828,31.582 51.35,31.582 L51.35,31.582 Z" id="Shape" fill="#9012FE"></path>
            </g>
        </g>
    </g>
</svg>