<?xml version="1.0" encoding="UTF-8" standalone="no"?>
<svg width="74px" height="74px" viewBox="0 0 74 74" version="1.1" xmlns="http://www.w3.org/2000/svg" xmlns:xlink="http://www.w3.org/1999/xlink" xmlns:sketch="http://www.bohemiancoding.com/sketch/ns">
    <!-- Generator: Sketch 3.0 (7574) - http://www.bohemiancoding.com/sketch -->
    <title>Slice 1</title>
    <description>Created with Sketch.</description>
    <defs></defs>
    <g id="Page-1" stroke="none" stroke-width="1" fill="none" fill-rule="evenodd" sketch:type="MSPage">
        <g id="fi-save" sketch:type="MSLayerGroup">
            <g id="Group" sketch:type="MSShapeGroup">
                <rect id="Rectangle-path" fill="#B8E986" x="40" y="4" width="10.352" height="21.471"></rect>
                <path d="M68.012,0.977 C67.575,0.498 66.952,0.192 66.252,0.192 C66.238,0.192 57.302,0.196 57.302,0.196 C56.839,0.249 56.561,0.348 56.346,0.564 C56.131,0.779 56.031,1.057 56.003,1.343 L55.975,26.649 C55.919,27.926 54.877,28.949 53.588,28.949 L53.291,28.949 L19.135,28.949 C17.901,28.875 16.92,27.887 16.876,26.649 L16.867,1.343 C16.768,1.077 16.661,0.817 16.452,0.608 C16.141,0.297 15.728,0.181 15.333,0.221 L2.383,0.193 C1.064,0.193 -0.005,1.261 -0.004,2.581 L-0.004,28.949 L-0.004,38.534 L-0.004,71.421 C-0.005,72.741 1.063,73.808 2.383,73.808 L9.953,73.808 L9.953,71.421 L9.953,40.889 C10.003,39.679 10.813,38.755 11.882,38.546 C12.122,38.518 12.229,38.501 12.34,38.501 L61.64,38.501 C62.976,38.555 63.974,39.552 64.019,40.801 L64.028,73.808 L71.609,73.808 C72.928,73.808 73.996,72.74 73.996,71.422 L73.996,8.029 C74.003,7.255 73.697,6.631 73.217,6.195 L68.012,0.977 Z" id="Shape" fill="#50E3C2"></path>
            </g>
        </g>
    </g>
</svg>